<?xml version="1.0" encoding="UTF-8"?>
<svg version="1.1" viewBox="0 0 1600 902" width="665" height="375" xmlns="http://www.w3.org/2000/svg">
<path transform="translate(1237,103)" d="m0 0 9 3 12 7 15 11 24 16 20 14 13 9 17 12 32 22 15 11 16 11 17 13 8 8 6 10 2 8v17l-5 13-3 7-6 34-4 10-7 5h-7l-12-4-26-15-4-1-3 3v97l-2 23-3 19v13l4 8 9 10 7 8 13 13 4 3v2l4 2 17 17 1 5-5 9-8 10-28 28-8 7-19 19-8 7-10 10-8 7-9 9-8 7-9 8-13 8-9 2-12-2-18-8-14-8-19-12-9-8-3-5v-7l6-10 12-12 7-8 13-14 3-9-2-6-2 2h-3l-1-2-35 2-94 8-58 7-78 11-37 5-84 12-70 11-180 31-75 12-60 9-51 6v3l3 6v8l-6 12-9 11-13 15-9 11-18 20-6 4-8-2-8-6-9-9-8-7-10-9-8-7-14-12-15-13-14-12-11-9-10-9-8-7-14-12-11-9-16-13-9-7-9-9-3-5 1-4 17-12 20-14 22-14 10-6 9-4h7l9 5 12 1 3-1 2-9 1-26v-142l-1-39-3-56-2-22v-11l4-8 10-10 7-8 8-6 8-3 12-1 115-1 83-3 111-3 152-4 73-3 61-2 107-5 90-5 47-2 12-3 1-1-1-13 9-12 8-8 9-7 10-15 9-20 6-10z" fill="#FAF9F9"/>
<path transform="translate(1145,199)" d="m0 0h16v1l-7 1-101 7-31 1-72 4-32 2-50 2-64 2-68 4-76 2-100 4-90 2-16 1h-134l-10 2-10 9-5 7-2 4-1 10 1 3 1 27v137l-1 62-2 72v14l2 10 10 10 14 11 14 12 8 7 4 3v2l4 2 11 10 2 1v2l4 2 8 5h15l8-1 29-1 50-2 14-1h31l33-4 9-1h12l42-5 17-2 25-5 14-3 88-12 47-7 38-4 3-1 26-3 26-4 37-5 40-5 4-1 20-2 35-5 38-5 27-3 23-2 14-2 20-1 18-2 44-4 10-2 16-2 10-2 15-2 12-11 7-8 12-12 5-4 22-22 7-8 15-14 9-6h1l2 12 6 9 16 17 10 10 4 3v2l4 2 17 17 1 5-5 9-8 10-28 28-8 7-19 19-8 7-10 10-8 7-9 9-8 7-9 8-13 8-9 2-12-2-18-8-14-8-19-12-9-8-3-5v-7l6-10 12-12 7-8 13-14 3-9-2-6-2 2h-3l-1-2-35 2-94 8-58 7-78 11-37 5-84 12-70 11-180 31-75 12-60 9-51 6v3l3 6v8l-6 12-9 11-13 15-9 11-18 20-6 4-8-2-8-6-9-9-8-7-10-9-8-7-14-12-15-13-14-12-11-9-10-9-8-7-14-12-11-9-16-13-9-7-9-9-3-5 1-4 17-12 20-14 22-14 10-6 9-4h7l9 5 12 1 3-1 2-9 1-26v-142l-1-39-3-56-2-22v-11l4-8 10-10 7-8 8-6 8-3 12-1 115-1 83-3 111-3 152-4 73-3 61-2 107-5 90-5z" fill="#B7ACA0"/>
<path transform="translate(685,267)" d="m0 0h29l19 1 4 14 2 14-4-1-5-6v-2l-4-2-13-8-6-2h-13l-12 3-8 6-2 3 1 9 1 3 5 2 21 6 24 6v2l7 1v2l9 2v2l4 1 5 5 1 3h2v3h2l4 8 2 13v8l-4 13-7 9-10 8-8 4-13 4-10 2h-19l-15-2v3h-2l9 16 2 7h2l9 17 4 10 12 22 3 6v3h2l1 2v6l-3 1-1 3-12 9-20 11-17 8-14 4-5 1h-9l-15-5-6-3-5-4-8-5h-7l-14 7-10 6-7 5h-2l5 5 5 2v2l5 1 2 4 9 3 3 2v3l4 1 6 3v2l6 2 1 7h-2l1 9 8 7 13 9 15 5 6 4 5 11-1 7-3 5-6 2h-10l-7-4-9-7-7-6v-2h-3v-2l-12-4h-7l-7 6-1 2-3-1-1-2-6-2-4-4-11-7-2-1v-2l-4-1-9-5v-2l-7-2-4-4-6-4-10-5-7 1-6 1v2l-17 9-15 9-14 9-19 11-14 8-3 1h-11l-7-4-1-4h-2l-2-4v-10l4-8 7-6 11-7h4v-2l27-14 27-13v-3-2l-9-3-3-3-7-4-8-6-7-4-6-4-15-9-3-1-4-4-11-6-2-2v-16l-4-5-8-6-3-1v-2l-9-2-8-4-5-2-7-8-1-4v-8l3-5 3-3h14v2l10 5 2 4 3 1 6 7 13 5 5 2h7l6-5 7 1 8 6 23 15 13 8 8 5 7 3 6 5 6 3 3 2v2h2v2l5 1 7 4v2l6 2 5 3 8-1 21-10 20-12 4-5v-24l3-10 2-4 1-6 14-14 9-7 8-4 11-7 5-3h2v-2l12-7 8-1-3-15-2-13-2-9v-6l3 4 4 8 5 4 5 5 14 7 11 3h16l9-1 2-4 5-4 4-2 5-7v-12l-4-9-7-6-10-5-30-7-16-6-9-6-5-6-2-8v-10l4-11 6-7 8-5 6-2z" fill="#BE543D"/>
<path transform="translate(1237,103)" d="m0 0 9 3 12 7 15 11 24 16 20 14 13 9 17 12 32 22 15 11 16 11 17 13 8 8 6 10 2 8v17l-5 13-3 7-6 34-4 10-7 5h-7l-12-4-26-15-2-2-1-4-14-8-22-15-17-12-18-13-17-12-19-12-5-2 1 2v6h2v7h2l1 3v8h-2l-4-9-3-3-11-7-14-4-14-1v14l5 65 2 31 1 2 5 2 1 4-28 2h-10l3-6 4-4v-37l-2-30-1-2-2-25-1-2v-9l-19 2-7 2v2h-2l-2 4-7 9h-2l-2 4h-1l1-10 2-10 1-13 21-1 15-2 36-1h20l-3-5-18-13-17-12-18-13-7-4-4-1-2-5 1-6 9-11 7-7 9-7 10-15 9-20 6-10z" fill="#D6C7B3"/>
<path transform="translate(494,247)" d="m0 0h19l12 4 6 4 10 9 7 7 1 2 7-1 2-1h14l16 5 12 8 6 7 6 11 5 14v16l-6 18-9 12-10 8-12 7-1 77-1 3-15 6-20 6-17 3h-26l-15-3-10-4-6-2-6-3-8-2-2-10v-70h-14l-7-2-13-8-6-7-4-8-1-4v-18l2-6 6-9 7-6 8-5 18-2 3-19 6-11 4-6 7-8 10-7z" fill="#5F9794"/>
<path transform="translate(1359,470)" d="m0 0h1l2 12 6 9 16 17 10 10 4 3v2l4 2 17 17 1 5-5 9-8 10-28 28-8 7-19 19-8 7-10 10-8 7-9 9-8 7-9 8-13 8-9 2-12-2-18-8-14-8-19-12-9-8-3-5v-7l6-10 12-12 7-8 13-14 3-9-2-6-1-2-4-1-1-2h-17l3-2 23-3 10-2 15-2 12-11 7-8 12-12 5-4 22-22 7-8 15-14z" fill="#D6C7B3"/>
<path transform="translate(685,267)" d="m0 0h29l19 1 4 14 2 14-4-1-5-6v-2l-4-2-13-8-6-2h-13l-12 3-8 6-2 3 1 9 1 3 5 2 21 6 24 6v2l7 1v2l9 2v2l4 1 5 5 1 3h2v3h2l4 8 2 13v8l-4 13-7 9-10 8-8 4-13 4-10 2h-19l-15-2v3h-2l9 16 2 7h2l9 17 4 10 12 22 3 6v3h2l1 2v6l-3 1-1 3-12 9-20 11-17 8-14 4-5 1h-9l-15-5-6-3-5-4-8-5h-7l-14 7-10 6-7 5h-2l-1 2-14-8v-2l-3-1-2-3-7-2 3-2 13-5 21-11 11-7 4-5v-24l3-10 2-4 1-6 14-14 9-7 8-4 11-7 5-3h2v-2l12-7 8-1-3-15-2-13-2-9v-6l3 4 4 8 5 4 5 5 14 7 11 3h16l9-1 2-4 5-4 4-2 5-7v-12l-4-9-7-6-10-5-30-7-16-6-9-6-5-6-2-8v-10l4-11 6-7 8-5 6-2z" fill="#D79755"/>
<path transform="translate(1145,199)" d="m0 0h16v1l-7 1-101 7-31 1-72 4-32 2-50 2-64 2-68 4-76 2-100 4-90 2-16 1h-134l-10 2-10 9-5 7-2 4-1 10 1 3 1 27v137l-1 62-2 72v14l2 10 10 10 14 11 14 12 8 7 4 3v2l4 2 11 10 2 1v2l4 2 8 5h15l8-1 29-1 50-2 14-1h31l33-4 9-1h12l42-5 17-2 25-5 14-3 66-9h5v2l-16 2-39 6-28 5-31 6-52 8-85 14-27 5-46 5-9 2-2 6-12-1-28 2-63 6-22 3h-11l-6-5-1-7 7-57 3-36v-11l4-4 6-4 3-5 1-6 1-18 2-85v-53l-1-56-2-38-4-35v-12l9-15 9-9h2l2-4 1-3 8-3 12-1 115-1 83-3 111-3 152-4 73-3 61-2 107-5 90-5z" fill="#D6C8B4"/>
<path transform="translate(1081,245)" d="m0 0h46l4 2 4 4v3h2l3 9v11l-2 5-3 2-3 6-7 9-2 2h-3l2 6 4 4 1 3 4 3 1 5h2v3h2v3h2v3h2l3 9h2l3 7v3h2l6 13v2h2v3l4 2 1 3-1 1-37 1-1-2 4-4h2l-7-23-4-4-9-13-6-7-10-5-3 4-7 1-5 1-2-1v28l2 15 1 5 6 1h3l1 5-7 2-30 2h-10l-2 4-10 3-8 1-4 2h-5l-7-3-5-2v-2h-2l1-17-3-7-1-3h-2v-2l-5-2v-2l-5-2-14-10-4-3-11-1-5 6-2 3-3 5-4 20-1 8 4 5-2 3-7 1h-10l-9 1-1-2 5-7 7-15 3-9 4-11 8-24 4-15 8-28 1-19 23-1h12l1 14 4 12 5 11 5 13 4 7 3 11h2l1 7h2l8 18 8 20 5 6 9-1 4-2 1-11-2-12 1-1v-39l-3-29-3-14-7-9-2-4 12-1 3-1z" fill="#C3AB63"/>
<path transform="translate(250,562)" d="m0 0h7l9 5 10 2-2 4-9-1-6-3-7-1-16 8-14 8-22 14-8 6-7 8-2 3 7 3 1 2h6l3-1v-2l7-4 8-1h16l6 6-1 5-2 5 2 1 3 1 1 2 6-1 1 2 3 1 1 5 3 1v7l-6 1 3 4v8h2l4 10 2 10 4 6 2 5 13 10 12 9 11 9 10 8 15 14 11 11 8 7 6 4 4-1 8-7 8-8 9-11 8-10 9-10 9-13 1-3v-7l-2-3 1-5 3-3 1-3 5-2 48-6 45-8 50-8 23-4 42-6 42-8 15-3 34-5 13-2 14-2 12-3 9-1 9-2 23-4h5v-2l24-3 21-2 3-1 26-3 26-4 37-5 40-5 4-1 20-2 35-5 38-5 27-3 23-2 14-2 20-1 18-2 31-3 30-1 1 3 5 1-2 4h-3l-1-2-35 2-94 8-58 7-78 11-37 5-84 12-70 11-180 31-75 12-60 9-51 6v3l3 6v8l-6 12-9 11-13 15-9 11-18 20-6 4-8-2-8-6-9-9-8-7-10-9-8-7-14-12-15-13-14-12-11-9-10-9-8-7-14-12-11-9-16-13-9-7-9-9-3-5 1-4 17-12 20-14 22-14 10-6z" fill="#ABA59C"/>
<path transform="translate(979,252)" d="m0 0h12l1 14 4 12 5 11 5 13 4 7 3 11h2l1 7h2l8 18 8 20 5 6 9-1 4-2 1-11-2-12 1-1 1-24h1l2 33v13l-2 4-4 1 1 3 19 1v1l-25 1h-2l-2 4-10 3-8 1-4 2h-5l-7-3-5-2v-2h-2l1-17-3-7-1-3h-2v-2l-5-2v-2l-5-2-14-10-4-3-11-1-5 6-2 3-3 5-4 20-1 8 4 5-2 3-7 1h-10l-9 1-1-2 5-7 7-15 3-9 4-11 8-24 4-15 8-28 1-19z" fill="#C3AB61"/>
<path transform="translate(881,257)" d="m0 0h13l-1 8v49l2 24 1 3 1 17 3 12 1 8 4 1 2 4-1 1-19 1h-14l-3-2 1-4h4l-2-28-1-1-2-42-2-33h-2l-2 6-8 13-13 25-6 12-5 12h-3l-5-5-9-14-4-9-14-21-5-6v-2l-4 1v11l3 39 1 10 1 22 2 14 6 5-1 2h-18l-3-1 1-4v-35l-2-42-2-22-3-10-3-3-3-5-2-3 35-3h9l2 5 2 9 1 5h2l1 5h2l10 16v3h2l3 6v3l3-3 11-21 4-6 4-11 1-5v-9z" fill="#C3AB62"/>
<path transform="translate(526,330)" d="m0 0 7 6 3 3 12 3 8 1h14l9-2-1 20-1 11 1 4-1 1h-28l-6 8-9 6-12 7-6 1h-18l-11-4-13-8-5-5-5-8v-2l-4-2-3-2-1-7v-19l2-7 9 2 15 4h20l10-4 11-5h3z" fill="#366765"/>
<path transform="translate(792,614)" d="m0 0h7v1l-28 5-9 2-14 2-12 3-18 2-31 5-19 3-24 5-21 4-54 8-53 9-61 10-40 5-5 1-1 5-3 2 1 5 1 2v7l-3 6-9 12-10 11-7 9-11 13-11 11-3 2-5-1-10-9-8-7-14-14-8-7-18-14-10-8-9-7h3l10 7 5 2 7-1 13-3 14-2 7 1v-2l6-5h13l9 2h7l6-1 7 1 9 1 4 2 5 1 4-1v-14l6-3 2-6 10-2 45-5 39-7 36-6 50-8 51-8 40-8 51-8h11l1-3 36-5z" fill="#ABA59B"/>
<path transform="translate(685,267)" d="m0 0h29l19 1 4 14 2 14-4-1-5-6v-2l-4-2-13-8-6-2h-13l-12 3-8 6-2 3 1 9 1 3 5 2 21 6 24 6v2l7 1v2l9 2v2l4 1 5 5 1 3h2v3h2l4 14v9l-2 9-6 11-9 9-10 5-15 4h-23l-30-4-4-9-5-21v-6l3 4 4 8 5 4 5 5 14 7 11 3h16l9-1 2-4 5-4 4-2 5-7v-12l-4-9-7-6-10-5-30-7-16-6-9-6-5-6-2-8v-10l4-11 6-7 8-5 6-2z" fill="#C3AB61"/>
<path transform="translate(1226,563)" d="m0 0h10l1 3 5 1-2 4h-3l-1-2-35 2-94 8-58 7-78 11-37 5-84 12-70 11-180 31-75 12-60 9-43 5h-8l-1-2 7-2 42-5 24-4 26-5 33-5 62-10 20-3 58-11 61-9 42-7 17-3 20-4h4v-2l15-2 3-1 26-3 26-4 37-5 40-5 4-1 20-2 35-5 38-5 27-3 23-2 14-2 20-1 18-2 31-3z" fill="#4E6967"/>
<path transform="translate(1247,237)" d="m0 0 5 1 5 4 2 5v6h2v7h2l1 3v8h-2l-4-9-3-3-11-7-14-4-14-1v14l5 65 2 31 1 2 5 2 1 4-28 2h-10l3-6 4-4v-37l-2-30-1-2-2-25-1-2v-9l-19 2-7 2v2h-2l-2 4-7 9h-2l-2 4h-1l1-10 2-10 1-13 21-1 15-2 36-1z" fill="#C3AB62"/>
<path transform="translate(475,543)" d="m0 0 5 2 7 6 18 10 6 4 7 3-2 1-7-1-9 2v2l-17 9-15 9-14 9-19 11-14 8-3 1h-11l-7-4-1-4h-2l-2-4v-10l4-8 7-6 11-7h4v-2l27-14 27-13v-3z" fill="#D58A4B"/>
<path transform="translate(698,458)" d="m0 0 3 1 11 20 1 6h2l1 2v6l-3 1-1 3-12 9-20 11-17 8-14 4-5 1h-9l-15-5-6-3-5-4-8-5h-7l-14 7-10 6-7 5h-2l-1 2-14-8v-2l-3-1-2-3-7-2 3-2 11-4h6l14-6h13l4-1 10-3h15l9 1 9-1 4 3v3h2l1 2 6 1 7-1 8-7 13-8 12-8 7-3 8-3 4-8-2-6z" fill="#D58A4B"/>
<path transform="translate(828,408)" d="m0 0 5 1 1 2 3 41 5-3 1-3 5-3h2v-2l5-1v-2l12-5h9l10 5 2 2v3h2l3 21 2 33 2 15-9 3h-7l-3-2-2-37-2-17-4-10-1-3h-9l-11 5-7 8-3 6v24l1 18 2 6 3 3-7 2-9 1h-10v-3l2-1v-23l-2-42-3-33v-7z" fill="#C3AB61"/>
<path transform="translate(944,429)" d="m0 0h23v2l7 1 2 1v2l5 2 6 4 5 8 1 4-14 7-39 13-6 1 1 12 3 8 7 6 14 5h8l10-3 6-4 7-8 5-3v10l-4 11-2 1-28 3-14-1-11-3-9-6-3-1-7-8v-3h-2l-3-8v-16l4-13h2l3-9 5-6 4-3 13-5z" fill="#C3AB63"/>
<path transform="translate(361,430)" d="m0 0h14v2l10 5 2 4 3 1 6 7 13 5 5 2h7l6-5 7 1 8 6 23 15 13 8 8 5 7 3 6 5 6 3 3 2v2h2v2l5 1 7 4v2l6 2 9 5 5 2 4 4-1 2-7-5-12-5-4-1v-2l-4-2-7-4-7-3-6-4-3-1v-2l-5-1-2 5-6 1h-9l-9-2-5-1-10-4-6-5-4-2v-4h-2l-4-4-6-4h-8l-2-5 2-4v-5l-5 1-1 4-4 3h-5l-1 3h-2l-1 7-7-6-5-4-3-1v-2l-9-2-8-4-5-2-7-8-1-4v-8l3-5z" fill="#C86950"/>
<path transform="translate(737,622)" d="m0 0h5v2l-16 2-39 6-28 5-31 6-52 8-85 14-27 5-46 5-9 2-2 6-12-1-25 1 1-2 7-2v-1h16l-10-7-2-1v-2h-3v-2l-3-1-3-6v-2l22-2 29-1 50-2 14-1h31l33-4 9-1h12l42-5 17-2 25-5 14-3z" fill="#CDC7BF"/>
<path transform="translate(1145,199)" d="m0 0h16v1l-7 1-101 7-31 1-72 4-32 2-50 2-64 2-68 4-139 1-77 3-46 1-20 1h-106l-30-1v-1l9-1 115-1 83-3 111-3 152-4 73-3 61-2 107-5 90-5z" fill="#8E8C88"/>
<path transform="translate(548,436)" d="m0 0 8 1 9 2 3 3v11h8l1 4-16 7-15 4-20 4h-26l-15-3-13-5 1-3h9l4-1-2-4 1-5 4-6 9-3 11-4h10l3-1z" fill="#4C8481"/>
<path transform="translate(1237,103)" d="m0 0 9 3 12 7 15 11 24 16 20 14 13 9 17 12 32 22 15 11 16 11 17 13 8 8 6 10 2 8v17l-5 13-3 7-6 34-4 10-7 5h-7l-12-4-26-15-2-2 1-4 5 2 13 8 17 9 13 2 3-9 2-7 3-29 5-15 1-2h2l2-9v-13l-4-8-8-9-13-10-14-9v-2l-4-1-33-22v-2l-5-1-7-5v-2h-2l-1-2-3-1v-2l-5-1-3-2v-2h-2v-2l-5-1-9-7-6-4v-2l-5-2v-2l-5-1-3-2v-2l-6-2-11-8-4-4-7-4-9-6-5-5-6-3-4-4-5-3-6-4-3 1-10 17-7 14-7 10-6 7-2-1 8-11 7-14 8-17 6-7z" fill="#434343"/>
<path transform="translate(1032,390)" d="m0 0h17l5 2 2 4-1 7-3-1-1-4-6-1h-8l-4 1-2 4h-2l-2 11v14l18 1v3l-10 4h-6l2 57 2 13v3h-21l-2-2 3-4-1-27-3-29v-6l-5-2-2-2 1-4 4-4h2l1-17 4-10 8-7z" fill="#C3AA62"/>
<path transform="translate(250,562)" d="m0 0h7l2 1v2l-10 2-14 7-21 13-11 7-16 11-9 8 1 6 9 9 8 7 10 8 7 6 9 7 13 10 14 12 8 8 8 7 22 18 12 10 12 9 11 10 8 7 8 8 11 9 1 1h6l10-10 9-11 9-10 7-9 13-15 4-8 1-9-1-6 3-5 3 4 3 6v8l-6 12-9 11-13 15-9 11-18 20-6 4-8-2-8-6-9-9-8-7-10-9-8-7-14-12-15-13-14-12-11-9-10-9-8-7-14-12-11-9-16-13-9-7-9-9-3-5 1-4 17-12 20-14 22-14 10-6z" fill="#686A64"/>
<path transform="translate(259,564)" d="m0 0 7 3 10 2-2 4-9-1-6-3-7-1-16 8-14 8-22 14-13 10-5 4-1 5 9 9 5 3 5 5 6 4 5 5 10 8 13 11 11 9 7 6 5 6 6 5 5 5 15 12 8 6 14 11 10 9 8 7 14 14 8 7 6 4 4-1 8-7 8-8 9-11 8-10 9-10 9-13 1-3v-7l-2-3 1-5 3-3 1-3 5-2 48-6 45-8 50-8 23-4 42-6 42-8 15-3 34-5 13-2 14-2 12-3 9-1 9-2 23-4h5v-2l24-3h6v2l-24 5-22 4-64 10-45 7-47 9-39 6-43 7-33 5-31 6-34 5-27 3-6 2v2h-3l-2 6 1 10-4 9-9 11-11 13-9 11-9 10-7 8-5 5h-6l-10-9-8-7-8-8-11-9-8-7-16-12-10-9-14-11-17-16-15-13-11-8-10-8-8-7-10-8-15-14-2-4 1-4 10-9 15-10 19-12 19-11 10-5z" fill="#8C8986"/>
<path transform="translate(761,441)" d="m0 0h19l12 3 3 5 1 5v8l-4-4-4-6-9-4h-14l-11 5-7 11-2 10v10l2 10 6 12 6 5 9 4 3 1h12l13-5 3-1 2 4-2 3-13 4-5 1h-18l-12-5-10-7-5-5-6-10-2-5-1-6v-10l5-16 8-10 9-4h3v-2z" fill="#C3AB61"/>
<path transform="translate(826,407)" d="m0 0h9l3 4 2 37 3-1-2 4-4 1-2-13-2-30-17 1 3 26 2 32 1 24v23l-3 1v3l25-3-4-5-1-4-1-18v-24l6-10 6-6 10-4h7l4 4 4 10 3 31 1 23 2 1h7l8-2-2-15-2-33v-9h1l2 16 2 27 2 9 5 8v6l-10 1h-17l-6-4-1-6 4-4-1-25-3-21-3-9-5-2-9 2-6 7-3 7-1 41 2 4 6 4-3 5-16 5h-8l-6-3-2-4v-4l4-4-2-46-2-32-3-19v-5l2-1z" fill="#D8CAB6"/>
<path transform="translate(765,439)" d="m0 0h30l3 15v11l-4 1-4-5-6-3-3-3-4-2-12-1-4 2-4 9-5 8-2 10v9l3 9 6 8 8 5 5 2h13l14-7 6-7 1-3h2l1 2v8l-7 14-7 6h-2v2l-7 2-20-2-16-5-6-4-8-6-7-9-5-10-1-11 4-16 4-10 1 2-4 14v10l2 9 6 11 2 4 4 2 13 8 8 3h18l15-4 3-1 1-4-2-1-11 5-4 1h-12l-10-4-6-4-4-5-5-10-2-10v-10l2-10 7-11 12-6h14l10 5 6 9v-7l-3-9-12-3h-24l4-2z" fill="#D7C8B5"/>
<path transform="translate(1093,255)" d="m0 0h14l6 3 2 5v15l-3 6-10 7-4 4-18 9h-6l-1-17v-27l1-1h6v-2z" fill="#F8F6F4"/>
<path transform="translate(1226,563)" d="m0 0h10l1 3 5 1-2 4h-3l-1-2-35 2-94 8-58 7-78 11h-14-4l-5 1h-6l-6 2v-2l4-3 26-4 14-2 20-2 35-5 38-5 27-3 23-2 14-2 20-1 18-2 31-3z" fill="#494C4C"/>
<path transform="translate(683,266)" d="m0 0h33l19 1 7 32v6l-5-3-14-9-17-8-3-1h-10l-6 3-3 5-2 8 5 2 24 7-4 1-26-7-7-4-3-6v-6l6-7 7-4 10-2h13l10 4 10 7 5 5 4 5 3 1-6-26v-2h-48l-10 2-8 4-6 5-5 10-1 4v10l3 10 8 7 11 5 16 5 23 5 13 7 7 8 2 6v12l-7 9v-3l3-5 2-2v-9l-4-10-18-8-5-1-14-3-20-5-12-7-5-4-4-7-2-11v-9l4-11 7-8 8-5z" fill="#D8C9B5"/>
<path transform="translate(1145,199)" d="m0 0h16v1l-7 1-101 7-31 1-72 4-32 2-50 2-64 2-35 2h-14v-1l-38-1-11-1v-1l82-2 73-3 61-2 107-5 90-5z" fill="#B0B2AF"/>
<path transform="translate(1053,320)" d="m0 0h1l2 33v13l-2 4-4 1 1 3 19 1v1l-25 1h-2l-2 4-10 3-8 1-4 2h-5l-7-3-5-2v-2h-2l1-17-3-7-1-3h-2v-2l-5-2v-2l-5-2-14-10-4-3-11-1-5 6-2 3-3 5-2 11h-1v-8l5-20 3-5 2-1h9l15 4 11 6 8 6 10 15 2 5v9l-5 8-1 4 14-2 22-2-6-9-4-8-6-15-5-13 1-3 8 18 8 20 5 6 9-1 4-2 1-11-2-12 1-1z" fill="#D6C8B4"/>
<path transform="translate(305,231)" d="m0 0h2l-2 4-13 13-1 3-6 5-2 4v20l5 52 1 20 1 86v23l-1 60-2 33-2 5h-1v-169l-1-39-3-56-2-22v-11l4-8 10-10 7-8z" fill="#898885"/>
<path transform="translate(597,223)" d="m0 0h109v1l-46 1-100 4-90 2-16 1h-134l-10 2-10 9-8 7v-3l10-10h2l2-4 1-3 8-3 33 1h106l20-1 76-2z" fill="#C2BBB3"/>
<path transform="translate(297,244)" d="m0 0v3l-4 7-1 10 1 3 1 27v137l-1 62-2 72v19h-5l-3-3-2-4-4 2-1 4v6l-2-1v-11l4-4 6-4 3-5 1-6 1-18 2-85v-53l-1-56-2-38-4-35v-12l7-11z" fill="#CDC7BF"/>
<path transform="translate(523,318)" d="m0 0h4l2 5v4l4 2 12 1 3-1h8l9 4-1 9h9l-3 2h-14l-18-3-5-3-6-7-16 8-9 3h-20l-15-4-9-2-1 11v21l4 2 4 4 5 8v2l4 2 9 6-2 1-10-6-9-9-4-5v-2l-4-1-1-4v-34l11 2 16 5h9l5-1v-2l18-6 8-5h3z" fill="#4B8481"/>
<path transform="translate(949,437)" d="m0 0h12l6 4 4 5 2 5v5l-4 3-26 7-12 3-1-2v-10l4-11 7-6z" fill="#FBFAFA"/>
<path transform="translate(936,595)" d="m0 0 4 1-1 2h-3v2l6-3h8l7-2v2l3-1 3 2-65 9-67 10-51 8-11-1 1-2 31-5 17-4 11-1v-2l15-2 3-1 26-3 26-4z" fill="#596E6C"/>
<path transform="translate(968,270)" d="m0 0h2l7 16v4h2l3 13h2l8 21v2l-5-2-19-7-9-1-6 1 3-10 11-33z" fill="#E2D6C5"/>
<path transform="translate(475,543)" d="m0 0 5 2 2 2-1 6-2 2-1 7-9 4-9 3-10 4-11 5-10 2-13 5-5 3-7 2-4 5-3 6-1 6h-1v-10l4-8 7-6 11-7h4v-2l27-14 27-13v-3z" fill="#D79655"/>
<path transform="translate(755,338)" d="m0 0 2 1 2 6 1 18-4 13-7 9-10 8-8 4-13 4-10 2h-19l-15-2v3h-2l9 16-1 2-10-17-7-5-12 1 2-2 8-1-3-15 1-4 4 11 30 4h23l18-5 9-6 8-9 5-11 1-6v-9z" fill="#D7C9B5"/>
<path transform="translate(771,273)" d="m0 0 3 3 3 10 2 22 2 42v35l-2 4h21l-6-6-2-14-1-22-2-19-2-30v-11l3-2 5 5 10 14 8 13-1 2-11-16-3-3-5 4v20l2 18 3 39 5 6-1 4-4 1-20 1-6 1-1-4 5-5h2l1-8v-15l-4-56-2-8v-17z" fill="#D9CAB7"/>
<path transform="translate(289,251)" d="m0 0 1 2-5 8v12l4 38 2 35 1 56v53l-2 85-1 18-2 8-5 6-6 3h-8l-13-5h-8l2-2 5-1 9 3 5 2h6l4-4 3-1 2-9h2l2-15 1-22 1-60v-23l-1-86-2-31-4-41v-20l4-6z" fill="#AEA79E"/>
<path transform="translate(943,319)" d="m0 0h1l2 8 2 1-2 11-2 9-1 13-2 7 1 7 3 3-2 3-7 1h-10l-9 1-1-2 5-7 7-15 3-9 4-11 7-19z" fill="#C3AB63"/>
<path transform="translate(792,614)" d="m0 0h7v1l-28 5-9 2-14 2-12 3-18 2-31 5-19 3-24 5-21 4-54 8-53 9-61 10-40 5h-5l-2 3 1-5 10-2 45-5 39-7 36-6 50-8 51-8 40-8 51-8h11l1-3 36-5z" fill="#AFA79E"/>
<path transform="translate(1216,247)" d="m0 0h14l14 4 11 7 5 5 2 8h2l1-4v5l-5-1-9-7-14-7-12-1-1 3h-2l1 20-2 5 1 10v15l1 16 1 30 1 3 5 2 1 6-28 2h-14l2-4 3-1-1 3 37-1-1-4-6-2-1-2-5-72-2-24v-12z" fill="#E1D5C5"/>
<path transform="translate(1419,545)" d="m0 0 1 2-5 9-8 10-28 28-8 7-19 19-8 7-10 10-8 7-9 9-8 7-9 8-6 1 12-12 8-7 26-26 4-5 28-28 8-7 7-7 8-7 15-14z" fill="#484545"/>
<path transform="translate(643,414)" d="m0 0 4 1 1 4-6 5h-2v2h-2l-2 4-4 6-13 4h-2l-1 3-5 4-15 1-1-2 2-5h2l2-4 5-6 3-1 4-5h10v-2l10-4z" fill="#D6894A"/>
<path transform="translate(823,610)" d="m0 0h6v2l-24 5-22 4-64 10-45 7-47 9-39 6-61 10h-7l1-2 60-10 42-6 42-8 15-3 34-5 13-2 14-2 12-3 9-1 9-2 23-4h5v-2z" fill="#8C8986"/>
<path transform="translate(1441,253)" d="m0 0h1l1 5v17l-5 13-3 7-6 34-4 10-7 5h-7l-12-4-26-15-2-2 1-4 5 2 13 8 17 9 13 2 3-9 2-7 3-29 5-15 1-2h2l1-5 3-6z" fill="#5A4B45"/>
<path transform="translate(605,577)" d="m0 0 4 2 5 5 13 9 15 5 6 4 5 11-1 7-3 5-6 2h-10l-7-4-9-7-7-6v-2h-3v-2l-2-1 4 1 6 4 9 7 8 6 9 1 2-4v-8l-3-2v-2h-2v-2l-4-1-5-4-9-4-7-4v-2l-3 1-3-4-2-2z" fill="#C86B51"/>
<path transform="translate(866,275)" d="m0 0h2l1 3 3 46v14h-1l-3-36h-2l-4 1-1 5-7 6-10 13-2 4h-2l-2 6-6 9-4-2 1-2 2 1 10-23 12-22 9-16z" fill="#E1D5C4"/>
<path transform="translate(675,458)" d="m0 0 3 3v8l-8 5-17 10-16 9-6 2h-4v-8l11-7 10-6 15-10 8-5z" fill="#D7C8B4"/>
<path transform="translate(991,447)" d="m0 0 3 3-1 5h-2l-1 5-4 6-7 6-12 2-8 4-4-1v-3h4l2-7-19 7-3 2 1 11h3l6 12 8 4 9 1 11-4 5-3 2 1-9 6-8 2h-8l-16-6-7-8-3-12v-6l7-2 42-14 10-5z" fill="#E1D4C4"/>
<path transform="translate(1236,106)" d="m0 0 4 2 2 4 3 1-2 2-5 2-6 7-13 23-12 16-7 6-1 2-5 1v2l-8 7-3 1-1-7 11-12 9-7 4-2 8-10 6-10 8-16 7-11z" fill="#E1D6C7"/>
<path transform="translate(499,223)" d="m0 0h36v1l-15 1v2l-46 1-20 1h-106l-30-1v-1l9-1 115-1z" fill="#878784"/>
<path transform="translate(664,444)" d="m0 0h6l2 3-1 4-11 7-8 4-17 10-14 8h-2l-1-2v-8l7-5 14-7 13-8z" fill="#D7C8B4"/>
<path transform="translate(656,428)" d="m0 0 5 2 1 5-27 16-13 8-10 5-4-1v-6l5-5 20-12 11-6 6-5z" fill="#D7C8B4"/>
<path transform="translate(683,474)" d="m0 0 3 1 3 4-2 4-18 12-16 10-5 3-8 1-3-2v-4l31-19 12-7z" fill="#D7C8B4"/>
<path transform="translate(1145,199)" d="m0 0h16v1l-7 1-101 7-31 1-16 1h-15l-23-1v-1l151-8z" fill="#999792"/>
<path transform="translate(1053,320)" d="m0 0h1l2 33v13l-2 4-4 1 1 3 19 1v1l-25 1h-2l-2 4-10 3-8 1-4 2h-5l-7-3-5-2v-2l7 1 9 1 5-1 2-3 13-3-6-9-4-8-6-15-5-13 1-3 8 18 8 20 5 6 9-1 4-2 1-11-2-12 1-1z" fill="#D8CAB6"/>
<path transform="translate(765,439)" d="m0 0h30l3 15v11l-4 1-4-5-6-3-3-3-4-2-12-1-4 2-4 9-5 8-2 10v9l1 7-3-4-1-12 3-15 5-10 6-5h2l2-4h14l10 5 6 9v-7l-3-9-12-3h-24l4-2z" fill="#D8CAB6"/>
<path transform="translate(653,303)" d="m0 0h2l3 10 8 7 11 5 16 5 23 5 13 7 7 8 2 6v12l-7 9v-3l3-5 2-2v-9l-4-10-18-8-5-1-14-3-20-5-12-7-5-4-4-7-1-3z" fill="#D7C8B4"/>
<path transform="translate(949,437)" d="m0 0h12l6 4 4 5 2 5v5l-4 3-26 7-12 3-1-2v-10l4-11 7-6zm2 1-6 2-6 4v2h-2l-5 10v9l4 1 13-5 4-3v-2h3v-2l3 1 1-2 2 1v-8l-5-7z" fill="#D9CBB8"/>
<path transform="translate(1237,103)" d="m0 0 9 3 12 7 15 11 24 16 1 2-5-2-24-16-4-3h-2l11 9 2 3-4-2-8-5-5-5-6-3-4-4-5-3-6-4-3 1-10 17-7 14-7 10-6 7-2-1 8-11 7-14 8-17 6-7z" fill="#66726E"/>
<path transform="translate(1246,569)" d="m0 0 4 1-1 8-4 9-7 10h-2v2h-2l-2 4-11 11h-2v2h-2v2l-5 5-2 6 1 7-3 1-4-4-1-5 6-10 12-12 7-8 13-14 3-9 1-5z" fill="#E7DDD0"/>
<path transform="translate(826,407)" d="m0 0h9l3 4 2 37 3-1-2 4-4 1-2-13-2-30-17 1 3 26 2 32 1 24v23l-4 2-2 2v-4l4-4-2-46-2-32-3-19v-5l2-1z" fill="#DACCBA"/>
<path transform="translate(432,593)" d="m0 0h8l3 1h4l-2 5-9 5-9 6-11 6-6-2-2-4 1-3 13-8 7-5z" fill="#C8664F"/>
<path transform="translate(959,326)" d="m0 0h8l9 3v2l6 3v2l3 1 10 10 4 5v2h2l3 8v7h-3l-1-9-3-5v-2h-2v-2l-5-2v-2l-5-2-14-10-4-3-11-1-5 6-2 3-3 5-2 11h-1v-8l5-20z" fill="#E6DCCE"/>
<path transform="translate(851,452)" d="m0 0 2 1-6 7-3 7-1 41 2 4 6 4-3 5-16 5h-8l-6-3-1-6 2-1v3l25-3-4-5-1-4v-10l1-5v-25l7-11z" fill="#D7C8B4"/>
<path transform="translate(1226,563)" d="m0 0h10l1 3 5 1-2 4h-3l-1-2-35 2-35 3h-6v-1l15-3-12-1v-1l34-3 9-1z" fill="#444545"/>
<path transform="translate(561,533)" d="m0 0 10 5v2l5 1 2 4 9 3 3 2v3l4 1 6 3v2l6 2 1 7h-2v-5h-3v3h-2l-1-2-7 1v-2l-4-2-5-2v-2h-2v-2h-2v-3l-7-2-5-6v-3l-2-1-4-5z" fill="#C97157"/>
<path transform="translate(792,614)" d="m0 0h7v1l-28 5-9 2-14 2-12 3-18 2-31 5-19 3-24 5-21 4h-8l1-2 39-7 31-6 35-5 10-2h11l1-3 36-5z" fill="#AEA79E"/>
<path transform="translate(508,665)" d="m0 0m-6 1h6l4 4-47 7-43 5h-8l-1-2 7-2 42-5 24-4z" fill="#566E6B"/>
<path transform="translate(411,682)" d="m0 0 3 4 3 6v8l-6 12-5 6h-3-2v2h-2l-1 3-3 1-9 11-7 9-9 9-6 7-2-1 10-11 9-11 11-13 12-14 4-8 1-9-1-6z" fill="#596A67"/>
<path transform="translate(771,273)" d="m0 0 3 3 3 10 2 22 2 42v35l-2 4 20 1-1 2-20 1-6 1-1-4 5-5h2l1-8v-15l-4-56-2-8v-17z" fill="#D9CBB8"/>
<path transform="translate(1216,247)" d="m0 0h14l14 4 11 7 5 5 2 8h2l1-4v5l-5-1-6-7-12-7-7-2h-14l-3 6-1 13h-1l-1-13v-12z" fill="#D7C8B4"/>
<path transform="translate(814,214)" d="m0 0 2 1-1 1 18 1v1l-47 2-17 1h-14v-1l-38-1-11-1v-1l82-2z" fill="#BAB3AB"/>
<path transform="translate(1035,434)" d="m0 0 3 1-5 2h-3l1 10 2 44v9l4 1 1-2 1 8-2 2-5 1h-26l-1-5 3-2h3v-38h1l2 29v8l-3 4 1 1h21l-2-5-1-10-1-24v-33z" fill="#DACCB9"/>
<path transform="translate(315,227)" d="m0 0 33 1h57l49 1v1l-5 1h-130l-9 1-1 3-8 7-9 8v-3l10-10h2l2-4 1-3z" fill="#ACA69D"/>
<path transform="translate(1203,630)" d="m0 0 6 9 17 12 18 10 16 8 8 3 7 1h10l9-5 4 1-11 7-9 2-12-2-18-8-14-8-19-12-9-8-3-5z" fill="#926D61"/>
<path transform="translate(763,448)" d="m0 0m-3 1h3v2l-8 6-5 12-2 12 1 12 1 4h2l6 9 5 4 9 4h13l7-2v2l-9 3h-12l-10-4-6-4-4-5-5-10-2-10v-10l2-10 7-11z" fill="#D8CAB6"/>
<path transform="translate(994,484)" d="m0 0h2v14l-4 11-7 3-20 5h-13l-11-3-9-5-7-7h3l11 6 8 2 14 1 30-3 3-11v-9l-3 2 2-5z" fill="#D7C9B5"/>
<path transform="translate(741,628)" d="m0 0h6v2l-20 4-70 12h-8l3-3 26-5 36-6z" fill="#434546"/>
<path transform="translate(1091,304)" d="m0 0 5 1 10 11 11 16-1 2-12-15-10-5-3 4-7 1-5 1-2-1-1 12h-1v-19l7-1 7-6z" fill="#D7C8B4"/>
<path transform="translate(968,270)" d="m0 0h2l7 16-1 2-2 1-2 5h-2l-2 2-2-1-1 4h-4l-2 6-1 8 9 1 3 1v2l-11-1-6 1 3-10 11-33z" fill="#E2D5C5"/>
<path transform="translate(250,562)" d="m0 0h7l2 1v2l-10 2-14 7-21 13-11 7-16 11-10 9v5l-3-2v-2l-3 1 1-4 17-12 20-14 22-14 10-6z" fill="#596F6C"/>
<path transform="translate(874,362)" d="m0 0h1v17l-4 1v3l2 1h14l19-1-1-4-5-1 1-2 5 2v2h11v2l9-1h17l1-4-3-3 7 2-1 7-2 2-40 1-16 1h-12l-2 1-5-2-2-4v-3l6-1z" fill="#DCCEBC"/>
<path transform="translate(1372,319)" d="m0 0 5 2 13 8 17 9 13 2 3-9 2-7h1v7l2 1-4 8-6 4h-7l-12-4-26-15-2-2z" fill="#9C8C7F"/>
<path transform="translate(969,293)" d="m0 0 3 1 2 7v7l2 3v5l-2 1-16-4v-8l3-7h4v-4l3 1z" fill="#FBFAFA"/>
<path transform="translate(1359,470)" d="m0 0h1l2 12 6 9 16 17 10 10 4 3v2l4 2 4 5-2 2-3-2v-2l-4-2-7-7-2-1v-2l-4-2-1-3-4-2-3-3v-2l-3-1v-2l-4-2-3-5v-2h-2l-8-12v-2l-5-2 4-4z" fill="#E3D8C9"/>
<path transform="translate(613,650)" d="m0 0h9l-4 3-80 13-14 1v-2l15-3 26-4 21-4 23-3z" fill="#434546"/>
<path transform="translate(696,279)" d="m0 0h8l9 4 12 7 11 9h-3l-10-6-17-8-3-1h-10l-6 3-3 5-2 8 3 1-2 1-5-4v-7l3-6 4-3z" fill="#E3D7C7"/>
<path transform="translate(1263,556)" d="m0 0h5v2l-8 6-3 2-8 1-5 5-3-5-4-1-1-2h-17l3-2 23-3 10-2z" fill="#CCC6BE"/>
<path transform="translate(769,622)" d="m0 0m-5 1 10 1v2l-24 4h-3v-2l-53 8-42 8-3 1 1-3 24-5 51-8zm-121 22h6l2 2-8-1z" fill="#4E6664"/>
<path transform="translate(823,610)" d="m0 0h6v2l-24 5-22 4-37 6h-7l2-2 12-3 9-1 9-2 23-4h5v-2z" fill="#918D89"/>
<path transform="translate(404,716)" d="m0 0 1 4-11 12-9 11-11 13-11 12-3-1 7-9 9-10 3-5 10-13 6-7 3-1 1-2h2v-2z" fill="#454C4C"/>
<path transform="translate(291,719)" d="m0 0 4 2 10 8 10 9 14 12 4 3v2h2v2l4 2 10 8 10 1-1 4-4 1-8-3-10-9-15-14-11-9-14-13-5-4z" fill="#434546"/>
<path transform="translate(176,614)" d="m0 0 2 2 3 5 7 7 8 7 10 8 7 6 6 4v3 3l-11-9-16-13-9-7-9-9-2-3v-3h2l2 2z" fill="#87665B"/>
<path transform="translate(585,336)" d="m0 0 1 3-5 24 2 8-1 5-3 2h-28l-5 4 2-5 1-1h28l-1-7 2-24 1-4-3-1z" fill="#4B8481"/>
<path transform="translate(816,214)" d="m0 0h83v1l-7 1-24 1h-60v-1l7-1z" fill="#7F8480"/>
<path transform="translate(478,583)" d="m0 0 2 1-10 7-11 7-13 9-15 10-11 5h-7l-9-3-1-2 4 1h11l16-8 13-8 14-8 9-6z" fill="#DBCEBB"/>
<path transform="translate(767,449)" d="m0 0h10l7 3 7 6 1 4-8-4-3-3-4-2-12-1-4 2-4 9-5 8-2 10v9l1 7-3-4-1-12 3-15 5-10 8-6z" fill="#E3D7C7"/>
<path transform="translate(738,391)" d="m0 0 2 1-6 4-16 5-10 2h-19l-15-2v3h-2l9 16-1 2-10-17-5-4v-2h43l11-1 16-5z" fill="#E3D7C7"/>
<path transform="translate(955,438)" d="m0 0h8l6 9-1 8-4 4-18 5-4-1 7-3 4-4h3v-2h2l3-3v-5l-4-5v-2z" fill="#E2D6C6"/>
<path transform="translate(807,507)" d="m0 0 1 3-6 11-7 6h-2v2l-7 2-20-2-16-5-6-4-6-5h3l10 6 11 4h26l8-3 5-3z" fill="#E3D7C7"/>
<path transform="translate(1279,138)" d="m0 0 5 1 11 8 6 3v2l5 2 3 1v2l5 2v2l4 2 6 4 5 4 2 1v3l-6-2v-2l-5-2-10-7-5-3-2-1v-2l-5-2-12-9-7-5z" fill="#D8CCBC"/>
<path transform="translate(1219,290)" d="m0 0h2l1 4v15l1 16 1 30 1 3 5 2 1 6-28 2h-14l2-4 3-1-1 3 37-1-1-4-6-2-1-2-3-46z" fill="#DED1BF"/>
<path transform="translate(613,313)" d="m0 0h2v3h2v16l-6 18-7 10h-2l2-10 5-10 3-11z" fill="#518784"/>
<path transform="translate(826,407)" d="m0 0h9l3 4 2 37 3-1-2 4-4 1-2-13-2-30-17 1-1-2z" fill="#D9CBB8"/>
<path transform="translate(1145,199)" d="m0 0h16v1l-7 1-45 3-11 1h-13l-22-1v-1l56-3z" fill="#B4AEA6"/>
<path transform="translate(1040,376)" d="m0 0h5l-2 1-2 4-10 3-8 1-4 2h-5l-7-3-5-2v-2l7 1 9 1 5-1 2-3z" fill="#E3D7C7"/>
<path transform="translate(597,223)" d="m0 0h109v1l-74 1-33 1h-18v-1l14-1z" fill="#B6ADA3"/>
<path transform="translate(289,251)" d="m0 0 1 2-5 8v12l2 31 1 9v10l-2-2-4-41v-20l4-6z" fill="#ADA69D"/>
<path transform="translate(779,350)" d="m0 0h2v35l-2 4 20 1-1 2-20 1-6 1-1-4 5-5h2l1-8z" fill="#D9CAB7"/>
<path transform="translate(1037,396)" d="m0 0h8l6 2 2 4 2 1 1-7h1l-1 8-6 9-4 1v-7l-3-7-10-1z" fill="#D8C9B5"/>
<path transform="translate(1232,109)" d="m0 0 1 2-8 14-7 14-7 10-6 7-2-1 8-11 7-14 7-15z" fill="#564E4D"/>
<path transform="translate(874,508)" d="m0 0 1 2-1 5 3 2h25l2-2v6l-10 1h-17l-6-4-1-6z" fill="#E3D7C7"/>
<path transform="translate(1197,565)" d="m0 0h8l-4 2-10 1 10 2v1l-35 3h-6v-1l15-3-12-1v-1z" fill="#707D79"/>
<path transform="translate(664,442)" d="m0 0h6l2 5-2-1v-2l-8 2-14 7-9 6-17 9-4 2 4-5 9-6 7-5 16-8 9-3z" fill="#C3AB61"/>
<path transform="translate(959,326)" d="m0 0h8l2 2-6 1 4 2h-11l-5 6-2 3-3 5-2 11h-1v-8l5-20z" fill="#E1D5C5"/>
<path transform="translate(851,452)" d="m0 0 2 1-6 7-3 7-1 41 1 4-3-2-1-18v-25l7-11z" fill="#E3D7C7"/>
<path transform="translate(1302,144)" d="m0 0 11 7 34 24 16 11 7 5-1 2-10-7-5-3-20-14-18-13-14-10z" fill="#5E726F"/>
<path transform="translate(1203,630)" d="m0 0 6 9 17 12 18 10-2 1-1 2-17-10-10-7-8-7-3-5z" fill="#B3A894"/>
<path transform="translate(1011,465)" d="m0 0h1l2 29v8l-3 4 1 1 19 1-1 2h-24l-1-5 3-2h3z" fill="#D9CBB8"/>
<path transform="translate(934,473)" d="m0 0h5l-3 1v8l3 10 8 7 13 5 10-1 12-6 2 1-9 6-8 2h-8l-16-6-7-8-3-12v-6z" fill="#D8C9B6"/>
<path transform="translate(814,214)" d="m0 0 2 1-1 1 18 1v1l-47 2h-12v-1l13-2 1-2z" fill="#B9B2AA"/>
<path transform="translate(649,642)" d="m0 0m-6 1h6v2l-3 1v2l-23 4-4-1-3-2 5-2z" fill="#536B68"/>
<path transform="translate(611,583)" d="m0 0 4 2 12 8 15 5 6 4 5 11-1 7-3 5h-2l2-6v-8l-5-8-6-4-12-4-11-7z" fill="#CF9B5B"/>
<path transform="translate(250,562)" d="m0 0h7l2 1v2l-10 2-14 7-12 7 2-5 14-9z" fill="#6A6F69"/>
<path transform="translate(941,374)" d="m0 0 7 2-1 7-2 2h-24l1-3 4-1h17l1-4z" fill="#DACBB8"/>
<path transform="translate(847,514)" d="m0 0 4 2-3 5-16 5h-8l-6-3-1-4 4 2h11l14-3z" fill="#E3D7C7"/>
<path transform="translate(948,301)" d="m0 0h3l-1 15 1 4 2 1-3 2-1 5-4-1-1-2 1-14z" fill="#D5894A"/>
<path transform="translate(677,517)" d="m0 0 3 1-11 6-6 5-8 1-5 2-8 1-12-3-2-2 7 1h9l16-4 10-4z" fill="#DBCDBB"/>
<path transform="translate(473,542)" d="m0 0h2l2 4-8 5-39 19-7 4-2-1 8-5 17-9 19-9 7-5h2z" fill="#DACBB7"/>
<path transform="translate(765,439)" d="m0 0h30l2 9v5h-2l-3-8-12-3h-24l4-2z" fill="#DBCDBA"/>
<path transform="translate(1372,319)" d="m0 0 5 2 13 8 10 6-2 1-4-2-9-2-13-8-1-4z" fill="#4C4847"/>
<path transform="translate(315,227)" d="m0 0 17 1v2l-22 2-1 3-8 7-9 8v-3l10-10h2l2-4 1-3z" fill="#ABA49C"/>
<path transform="translate(426,450)" d="m0 0h9l4 2 5 5 9 6 10 7 10 6 3 4-5-2-29-19-10-7h-7z" fill="#DACCB9"/>
<path transform="translate(402,712)" d="m0 0 1 3h-2l-3 6h-2l-2 5-9 10-6 8-9 9-6 7-2-1 10-11 9-11 11-13z" fill="#C35D47"/>
<path transform="translate(866,275)" d="m0 0h2l-2 12-2 4-6 4-6 9-1 3h-2l2-6 11-19z" fill="#D7C8B4"/>
<path transform="translate(939,473)" d="m0 0 3 1-3 2 1 11h3l6 13-4-2-7-6-3-10v-6l1-2z" fill="#E3D7C7"/>
<path transform="translate(937,511)" d="m0 0 10 2h21l10-2h7l-4 2-17 4h-12l-11-3z" fill="#E3D7C7"/>
<path transform="translate(1047,204)" d="m0 0h38l-2 2-13 1h-25l-2-2z" fill="#826F66"/>
<path transform="translate(594,512)" d="m0 0h7l11 7 3 3 5 2-3 1-6-3v-2l-5-2-5-3-7 1-16 7-3 2-3-1 16-9z" fill="#DCCEBC"/>
<path transform="translate(1359,470)" d="m0 0h1l2 12 6 9 1 2-5-1-8-12v-2l-5-2 4-4z" fill="#E6DBCD"/>
<path transform="translate(769,622)" d="m0 0m-5 1 10 1v2l-24 4h-3v-2l-3-1 13-3z" fill="#4C5B5B"/>
<path transform="translate(259,564)" d="m0 0 7 3 10 2-2 4-9-1-6-3-10-1 2-3z" fill="#8E8A87"/>
<path transform="translate(737,622)" d="m0 0h5v2l-16 2-39 6v-3z" fill="#CBC5BD"/>
<path transform="translate(1207,152)" d="m0 0h2l-2 4-5 6-11 8-1 2-5 2 1-4 9-9 7-5 4-2z" fill="#F9F8F7"/>
<path transform="translate(792,614)" d="m0 0h7v1l-28 5-9 2-14 1-5-1v-1l36-5z" fill="#B6AFA7"/>
<path transform="translate(176,614)" d="m0 0 2 2 3 5 11 11-4-1v2l-4-2-10-10-2-3v-3h2l2 2z" fill="#B45D49"/>
<path transform="translate(663,462)" d="m0 0 3 1-18 12-20 12-1 8h-1l-1-9 17-10 8-7 6-1v-2z" fill="#C3AB61"/>
<path transform="translate(975,287)" d="m0 0 2 1v2h2l4 13v3l-4-2-4-4-2-6-1-2z" fill="#F6F2EF"/>
<path transform="translate(1125,347)" d="m0 0 2 2 5 14-1 5-1 1 32 1v1l-37 1-1-2 4-4h2l-5-16z" fill="#D9CAB7"/>
<path transform="translate(586,473)" d="m0 0h1v14l-6 7-25 14-10 5-3-1 25-13 11-7h2l2-4 2-2z" fill="#DACCB9"/>
<path transform="translate(1082,202)" d="m0 0h30l-3 2-11 1h-13l-22-1v-1z" fill="#A5A19B"/>
<path transform="translate(1222,344)" d="m0 0h1l1 11 1 3 5 2 1 6-28 2h-14l2-4 3-1-1 3 37-1-1-4-6-2-1-2z" fill="#DBCDBA"/>
<path transform="translate(1053,320)" d="m0 0h1l1 17v28l-2 3v-11l-2-12 1-1z" fill="#DFD3C2"/>
<path transform="translate(1087,310)" d="m0 0h5l2 4-3 4-7 1-5 1-3-2 1-3 7-1z" fill="#E3D7C7"/>
<path transform="translate(665,399)" d="m0 0h16l2 2-2 1-7-1v3h-2l9 16-1 2-10-17-5-4z" fill="#DED1C0"/>
<path transform="translate(936,595)" d="m0 0 4 1-1 2h-3v2l6-3h8l7-2v2l3-1 3 2-29 4-3-1 3-2-6-2v-1z" fill="#5B706E"/>
<path transform="translate(1055,329)" d="m0 0 2 4 1 13v22h-2l-1-15z" fill="#D28E4D"/>
<path transform="translate(527,662)" d="m0 0m-7 1h7v2h-3l1 3-7 1h-10l1-4z" fill="#4F6765"/>
<path transform="translate(286,292)" d="m0 0h1l2 19 1 13v16h-2l-1-8v-19l-1-9z" fill="#B3AA9F"/>
<path transform="translate(376,746)" d="m0 0v3l-11 12-4 6 1 2-4 2-1-2-6-1v-1h5l2-4 3-3 5-3z" fill="#596966"/>
<path transform="translate(223,577)" d="m0 0 2 1-5 5-11 7-10 7-2-1 5-5 15-10z" fill="#5A706D"/>
<path transform="translate(683,479)" d="m0 0 4 2-5 4-12 8-2-1 4-7z" fill="#E3D7C7"/>
<path transform="translate(1293,668)" d="m0 0h5l-4 4-10 5-6 1-8-1 3-2-2-2h14z" fill="#9D9188"/>
<path transform="translate(1132,284)" d="m0 0v3l-7 9-2 2h-3l-1 3-2-2 1-5 9-6z" fill="#DACBB9"/>
<path transform="translate(963,439)" d="m0 0 4 2 4 5 2 5v5l-4 3-7 1 5-5 1-8-4-6z" fill="#D7C8B4"/>
<path transform="translate(1389,333)" d="m0 0 7 1 9 3 7 2-3 3-10-2-10-6z" fill="#5F706D"/>
<path transform="translate(1441,253)" d="m0 0h1l1 5v17l-5 13-1-4 2-6z" fill="#887D76"/>
<path transform="translate(1017,327)" d="m0 0 3 4 11 27 2 6-3-1-8-20-5-13z" fill="#DACCBA"/>
<path transform="translate(960,295)" d="m0 0 1 4-2 6-1 8 9 1 3 1v2l-11-1-6 1 3-10z" fill="#DDCFBD"/>
<path transform="translate(1374,194)" d="m0 0 6 4 17 12 13 9-3 1-18-13-12-8-3-3z" fill="#647673"/>
<path transform="translate(412,687)" d="m0 0 4 2 1 3v8l-2 5h-3z" fill="#424647"/>
<path transform="translate(986,311)" d="m0 0 2 3 4 10v2l-5-2-7-3 3-1 1-5z" fill="#D7C8B4"/>
<path transform="translate(949,437)" d="m0 0h12v1l-15 2-5 4h-2v2h-2l-4 10h-2l1-6 4-6 9-6z" fill="#DBCDBA"/>
<path transform="translate(411,682)" d="m0 0 3 4-1 7-1 8-4 4 1-12-1-6z" fill="#696A64"/>
<path transform="translate(609,580)" d="m0 0 5 2 8 6 19 8 1 2-6-1-11-4-16-12z" fill="#DACCB9"/>
<path transform="translate(1032,491)" d="m0 0h1v9l4 1 1-2 1 8-2 2-7 1 3-4-2-6z" fill="#DCCFBD"/>
<path transform="translate(1029,205)" d="m0 0h14l10 2v1h-17l-26-1v-1z" fill="#BDB5AD"/>
<path transform="translate(1229,561)" d="m0 0h16l-2 2 1 6h-2l-1-2-4-1-1-2h-17l3-2z" fill="#A69F96"/>
<path transform="translate(653,499)" d="m0 0 4 1-5 4-7 3h-5l1-4 7-3z" fill="#EAE1D6"/>
<path transform="translate(285,689)" d="m0 0h19v1l-22 3h-11l-3-3h11z" fill="#CDC7BF"/>
<path transform="translate(934,210)" d="m0 0h17l21 1v1l-28 1v-2l-8 1h-13v-1z" fill="#BBB4AB"/>
<path transform="translate(1224,651)" d="m0 0 6 2 14 8-2 1-1 2-17-10z" fill="#95908B"/>
<path transform="translate(187,630)" d="m0 0 6 2 8 7 2 4-2 1-13-10z" fill="#646C67"/>
<path transform="translate(651,608)" d="m0 0 3 4 1 6-5 9-11 3-6-2v-1l14-2 3-3 2-4v-5z" fill="#D9CBB7"/>
<path transform="translate(652,350)" d="m0 0 3 1 2 5-1 3-1-2 1 9 2 8v5l-2-4-5-20z" fill="#DACCB9"/>
<path transform="translate(952,593)" d="m0 0h5l-1 3-8 2h-6l-6 2v-2l4-3z" fill="#3C3D3E"/>
<path transform="translate(724,479)" d="m0 0h1l1 12 3 9 6 9v3l-6-7-5-10-1-11z" fill="#E3D7C7"/>
<path transform="translate(615,422)" d="m0 0 2 1-6 5-2 3-5 3-5 7h-2v2l-5 3v-3l14-14z" fill="#CE9F5A"/>
<path transform="translate(842,319)" d="m0 0 1 3-9 21-2 3-4-2 1-2 2 1 10-23z" fill="#D8C9B5"/>
<path transform="translate(774,282)" d="m0 0h1l2 21v15h-1l-2-17-1-3z" fill="#E3D7C7"/>
<path transform="translate(968,270)" d="m0 0h2l4 9-1 2-3-1-4 4-2 3 1-7z" fill="#D7C8B4"/>
<path transform="translate(762,263)" d="m0 0h25v1l-21 2 4 4-1 2-6-5-3-3z" fill="#DCCEBC"/>
<path transform="translate(1302,144)" d="m0 0 11 7 17 12v2l-4-2-19-13-5-4z" fill="#697875"/>
<path transform="translate(820,492)" d="m0 0h2v23l-4 2-2 2v-4l4-4z" fill="#DBCEBB"/>
<path transform="translate(794,297)" d="m0 0 3 1 1 3-5 3-1 19h-1l-1-22z" fill="#E3D7C7"/>
<path transform="translate(1044,400)" d="m0 0 5 2 1 4v4l2-1-2 4-4 1v-7l-2-4z" fill="#E3D7C7"/>
<path transform="translate(1315,649)" d="m0 0m-1 1m-1 1m-1 1m-1 1m-1 1m-1 1m-1 1m-2 1 2 1-2 4-5 5-7 2 5-5z" fill="#5A4A47"/>
<path transform="translate(647,605)" d="m0 0h2l4 8-1 7-3 5h-2l2-6v-8l-2-3z" fill="#D09552"/>
<path transform="translate(421,612)" d="m0 0m-1 1m-2 1h8l-5 4-3 1h-11l-5-3 2-1 4 2 7-1z" fill="#D19955"/>
<path transform="translate(755,338)" d="m0 0 2 1 2 6 1 18-1 5h-1l-1-11v-9z" fill="#DBCDBB"/>
<path transform="translate(568,526)" d="m0 0 2 1-2 4h2v2h-3l1 4-5-2-2-4z" fill="#DDD0BE"/>
<path transform="translate(776,385)" d="m0 0 2 1-5 6 4-1h21v1l-20 1-6 1-1-4z" fill="#E1D5C4"/>
<path transform="translate(1047,204)" d="m0 0h12v1l11 1v1h-25l-2-2z" fill="#93908B"/>
<path transform="translate(433,452)" d="m0 0 11 7 13 9-2 1-13-8-9-6z" fill="#D09754"/>
<path transform="translate(1182,176)" d="m0 0 1 4v10h-3l-2-5 1-6z" fill="#797A75"/>
<path transform="translate(1257,669)" d="m0 0 5 1 12 4-1 2h-7l-5-2v-3z" fill="#B8614D"/>
<path transform="translate(994,484)" d="m0 0h2v14l-4 11-3 1v-2h2l3-11v-9l-3 2 2-5z" fill="#DACCB9"/>
<path transform="translate(1219,290)" d="m0 0h2l1 4v14l-3 3z" fill="#DFD2C1"/>
<path transform="translate(308,233)" d="m0 0 2 1-10 9-8 7v-3l10-10h2l1-3z" fill="#B9B2A9"/>
<path transform="translate(677,517)" d="m0 0 3 1-11 6-6 5-5-1 3-2h2v-2z" fill="#DED1C0"/>
<path transform="translate(1338,179)" d="m0 0 6 1v2l4 1v2h2l-1 3-4-2-7-5z" fill="#CDBCAD"/>
<path transform="translate(674,633)" d="m0 0h5l-2 2-12 3h-10l4-2z" fill="#B1A89E"/>
<path transform="translate(452,599)" d="m0 0 4 1-10 7-5 2 3-5z" fill="#DDCFBD"/>
<path transform="translate(1240,256)" d="m0 0 6 2 10 7 2 3-5-2-3-3-10-5z" fill="#E3D7C7"/>
<path transform="translate(742,622)" d="m0 0h6v2l-12 3h-5v-3h11z" fill="#ACA69D"/>
<path transform="translate(377,742)" d="m0 0 1 3-8 8-6 7-2-1 10-11z" fill="#C45F49"/>
<path transform="translate(887,384)" d="m0 0h17v1l-11 1-4 1-16-1v-1z" fill="#D7C8B4"/>
<path transform="translate(549,376)" d="m0 0h14l12 1v1h-24l-5 4 2-5z" fill="#4D8683"/>
<path transform="translate(1193,363)" d="m0 0v3h21v1l-11 1h-14l2-4z" fill="#D9CAB7"/>
<path transform="translate(1330,164)" d="m0 0 7 4 10 7v2l-4-2-13-9z" fill="#607370"/>
<path transform="translate(1280,135)" d="m0 0 5 2 3 2v2l6 2v3l-4-2-6-4-4-4z" fill="#63706D"/>
<path transform="translate(1293,668)" d="m0 0h5l-4 4-7 4h-3l1-3z" fill="#9E6E5F"/>
<path transform="translate(1354,189)" d="m0 0 8 4v2l5 2v1l-7-1-5-4z" fill="#CBC1B3"/>
<path transform="translate(1214,141)" d="m0 0 1 3-10 12-2-1 8-11z" fill="#4B4D4E"/>
<path transform="translate(936,595)" d="m0 0 4 1-1 2h-3v2h5v1l-10 1 3-3-6-2v-1z" fill="#757F7A"/>
<path transform="translate(209,586)" d="m0 0 2 1-5 5-7 5-2-1 5-5z" fill="#607471"/>
<path transform="translate(1081,367)" d="m0 0 5 1h3l1 5-1 1h-6l3-1v-2l-5-2z" fill="#D9CAB7"/>
<path transform="translate(1425,324)" d="m0 0h1v7l2 1-1 3-5 3 1-7z" fill="#7E7465"/>
<path transform="translate(1170,253)" d="m0 0 4 1-7 2v2h-2l-2 4-5 6-1-2 8-10z" fill="#D7C8B4"/>
<path transform="translate(1213,645)" d="m0 0 6 1 6 4-1 2-4-1-6-4z" fill="#A6A098"/>
<path transform="translate(949,437)" d="m0 0h12v1l-15 2-5 4h-2l2-4z" fill="#DACCB9"/>
<path transform="translate(647,429)" d="m0 0 3 1-11 8-6 3-2-1 12-7z" fill="#C3AB61"/>
<path transform="translate(342,759)" d="m0 0 8 6 6 1v1l-7 1-6-5z" fill="#8F6558"/>
<path transform="translate(411,692)" d="m0 0 2 1-1 8-4 4 2-12z" fill="#C15A44"/>
<path transform="translate(613,650)" d="m0 0h9l-4 3-9 1 1-3z" fill="#464949"/>
<path transform="translate(609,645)" d="m0 0h6v2l-5 1h-13v-1z" fill="#B1A99F"/>
<path transform="translate(726,625)" d="m0 0h6l-1 2-4 1h-15v-1z" fill="#B1A89E"/>
<path transform="translate(653,499)" d="m0 0 4 1-5 4-5 1v-3z" fill="#FBFAFA"/>
<path transform="translate(861,448)" d="m0 0 5 1 3 3-1 3-2-3-4-1-9 1 2-2z" fill="#E3D7C7"/>
<path transform="translate(751,620)" d="m0 0h9l-1 2-11 1-5-1v-1z" fill="#B7B0A8"/>
<path transform="translate(532,516)" d="m0 0 9 2 5 5-1 2-7-5-6-2z" fill="#C86650"/>
<path transform="translate(766,624)" d="m0 0h8v2l-6 1h-8l1-2z" fill="#484B4C"/>
<path transform="translate(179,620)" d="m0 0 7 6 6 5h-3l-3-1v-2l-4-2-4-5z" fill="#AE6654"/>
<path transform="translate(1246,569)" d="m0 0 4 1-2 4-4 4v-6z" fill="#FBFAFA"/>
<path transform="translate(515,666)" d="m0 0h6v2l-3 1h-10v-2z" fill="#3F4142"/>
<path transform="translate(208,649)" d="m0 0 5 2 7 6-1 2-11-9z" fill="#AF614F"/>
<path transform="translate(605,605)" d="m0 0 4 1 6 4 2 2-1 3-6-5v-2h-3v-2z" fill="#CD835F"/>
<path transform="translate(642,500)" d="m0 0m-1 1m-2 1h2l-1 5 5-1-3 3-5-2v-4z" fill="#D9CAB7"/>
<path transform="translate(846,297)" d="m0 0 2 1-4 8-3 2 2-9z" fill="#D59257"/>
<path transform="translate(650,506)" d="m0 0 2 1-6 4h-7v-2z" fill="#D49956"/>
<path transform="translate(600,435)" d="m0 0h2l-3 6h-2v2l-5 3v-3l5-5z" fill="#D2A162"/>
<path transform="translate(1234,105)" d="m0 0h2l-2 5-4 2-4 3 2-4 4-5z" fill="#6A6C6A"/>
<path transform="translate(589,648)" d="m0 0h13v1l-12 2h-5z" fill="#ADA69D"/>
<path transform="translate(416,610)" d="m0 0 4 2v2l-6 2-1-2 1-3z" fill="#C05841"/>
<path transform="translate(1374,194)" d="m0 0 6 4 7 5-3 1-9-7z" fill="#5E726F"/>
<path transform="translate(1331,173)" d="m0 0h3v2h2v2l3 1-1 2-5-2-2-2z" fill="#CDC3B5"/>
</svg>
